<svg xmlns:xlink="http://www.w3.org/1999/xlink" xmlns="http://www.w3.org/2000/svg" viewBox="0 0 56 56" aria-hidden="true" class="" fill="currentcolor" focusable="false" width="35" height="35"><path d="M28.031 20.279a3.816 3.816 0 113.8-3.816 3.812 3.812 0 01-3.8 3.816zm0-6.132a2.316 2.316 0 102.3 2.316 2.31 2.31 0 00-2.3-2.316z M50.463 18.92L29.25 6.808a2.885 2.885 0 00-2.518.144L5.554 18.916A2.676 2.676 0 004.1 21.963a3.316 3.316 0 003.394 2.284h3.768v21.667H7.19a.75.75 0 100 1.5h41.627a.75.75 0 000-1.5h-4.034L44.8 24.25h3.7a3.331 3.331 0 003.409-2.294 2.667 2.667 0 00-1.446-3.036zm-37.7 5.327h6.487v21.667h-6.489zm22.7 0v21.667H20.748V24.247zm15-2.672A1.892 1.892 0 0148.5 22.75h-4.321c-.021 0-.039.01-.06.012a.59.59 0 00-.073-.015.75.75 0 00-.75.75l-.013 22.417h-6.325V24.247h.428a.75.75 0 000-1.5H7.493a1.853 1.853 0 01-1.943-1.165 1.214 1.214 0 01.742-1.36L27.471 8.258a1.38 1.38 0 011.125-.1l21.126 12.067a1.2 1.2 0 01.736 1.35z" fill="#64666A"></path></svg>