<svg xmlns:xlink="http://www.w3.org/1999/xlink" xmlns="http://www.w3.org/2000/svg" viewBox="0 0 56 56" aria-hidden="true" class="" fill="currentcolor" focusable="false" width="35" height="35"><path d="M29.908 42.459H18.82a.75.75 0 010-1.5h11.088a.75.75 0 010 1.5z M52.066 25.241a3.478 3.478 0 00-3.434-3.511H45.5l.6-3.082a3.512 3.512 0 00-2.7-4.118l-31.675-6.5a3.368 3.368 0 00-2.566.5 3.483 3.483 0 00-1.492 2.252L3.989 29.69a3.512 3.512 0 002.7 4.119l6.2 1.274v9.447a3.476 3.476 0 003.433 3.51h20.7a.75.75 0 000-1.5h-20.7a1.975 1.975 0 01-1.933-2.01V30.5h36.18l.008 13.73c0 1.684-.606 2.311-2.238 2.311h-4.526a.75.75 0 000 1.5h4.526c1.7 0 3.738-.661 3.738-3.812zm-45.08 7.1a2.006 2.006 0 01-1.525-2.362L9.14 11.071a1.991 1.991 0 01.851-1.29 1.876 1.876 0 011.431-.281L43.1 16a2.006 2.006 0 011.525 2.362l-.656 3.368h-3.11l-1.18.012-23.363-.1a3.571 3.571 0 00-3.433 3.607v8.305zm7.4-3.34v-3.754a2.052 2.052 0 011.93-2.107l24.559.107 1.748-.009-.007-.008h6.019a1.976 1.976 0 011.934 2.011v3.758z" fill="#008254"></path></svg>