<svg xmlns:xlink="http://www.w3.org/1999/xlink" xmlns="http://www.w3.org/2000/svg" viewBox="0 0 56 56" aria-hidden="true" class="" fill="currentcolor" focusable="false" width="35" height="35"><path d="M46.1 14.78a.75.75 0 00-1.24.86A17.76 17.76 0 0148 24.29l-.11.11H31.61a.11.11 0 01-.11-.11V8.12l.1-.12a17.69 17.69 0 018.91 3.23.76.76 0 001.05-.18.75.75 0 00-.18-1.05 19.2 19.2 0 00-9.67-3.49 1.54 1.54 0 00-1.19.42A1.61 1.61 0 0030 8.12v16.17a1.62 1.62 0 001.61 1.61h16.25a1.65 1.65 0 001.19-.53 1.55 1.55 0 00.41-1.2 19.28 19.28 0 00-3.36-9.39z M46.21 28.68h-19V9.82a1.62 1.62 0 00-.52-1.19 1.59 1.59 0 00-1.2-.42 20.68 20.68 0 00.2 41.23c.49 0 1 .05 1.47.05A20.74 20.74 0 0047.82 30.4a1.61 1.61 0 00-.42-1.2 1.64 1.64 0 00-1.19-.52zm-20.58-19l.1.11v19.3L13.14 41.8a19 19 0 01-5.06-11.57A19.24 19.24 0 0125.63 9.71zm.19 38.23a19 19 0 01-11.62-5.05l12.6-12.68h19.41l.11.1a19.22 19.22 0 01-20.5 17.66z" fill="#64666A"></path></svg>