<svg xmlns:xlink="http://www.w3.org/1999/xlink" xmlns="http://www.w3.org/2000/svg" viewBox="0 0 56 56.125" aria-hidden="true" class="" fill="currentcolor" focusable="false" width="35" height="35"><path d="M48.748 22.335L42.856 5.2a1.653 1.653 0 00-2.106-1.03l-5.116 1.776a.75.75 0 00.492 1.417l5.116-1.776a.152.152 0 01.116.007.156.156 0 01.08.092l5.891 17.137a.165.165 0 01-.1.2L26.84 30.081a57.732 57.732 0 01-1.566-5.246 4.67 4.67 0 00-1.838-2.885 2.786 2.786 0 00-2.147-.3c-1.074.227-2.322 1.058-2.165 3.729.057.98.17 2.026.289 3.134.147 1.357.295 2.757.342 4.061l-5 1.734a.141.141 0 01-.115-.008.156.156 0 01-.081-.09L8.671 17.066a.161.161 0 01.1-.2l21.251-7.383a.75.75 0 00-.492-1.417L8.276 15.445a1.664 1.664 0 00-1.023 2.11l5.891 17.138a1.658 1.658 0 001.565 1.119 1.623 1.623 0 00.541-.092l4.544-1.576a41.866 41.866 0 00.411 5.612 43.827 43.827 0 001.612 5.674c.683 2.1 1.39 4.274 1.779 6.02a.751.751 0 00.731.587.763.763 0 00.164-.018.75.75 0 00.569-.895c-.4-1.816-1.122-4.023-1.816-6.157a43.715 43.715 0 01-1.556-5.431 41.651 41.651 0 01-.4-5.718c-.008-.43-.016-.839-.028-1.232-.046-1.378-.2-2.832-.354-4.238-.118-1.09-.229-2.119-.284-3.062-.114-1.943.651-2.105 1-2.18a1.309 1.309 0 011.034.126 3.182 3.182 0 011.16 1.957 53.359 53.359 0 002.047 6.552 30.409 30.409 0 002.2 3.724.75.75 0 001.23-.859 34.285 34.285 0 01-1.9-3.129l8.105-2.8c2.308 3.569 2.81 5.19 2.81 5.912a25.042 25.042 0 01-1.377 5.791c-.388 1.27-.82 2.688-1.252 4.261a39.765 39.765 0 00-1.158 6.515.75.75 0 00.687.808h.062a.752.752 0 00.747-.689 38.811 38.811 0 011.108-6.238c.429-1.558.857-2.964 1.24-4.222a24.912 24.912 0 001.443-6.228c0-1.329-.918-3.385-2.852-6.416l10.767-3.724a1.665 1.665 0 001.025-2.112z M28.233 13.834l-.358-.973a.75.75 0 00-1.407.518l.359.977a3.233 3.233 0 00-1.642 3.785 2.774 2.774 0 001.477 1.552 3.734 3.734 0 002.221.249l1.052 2.858a2.16 2.16 0 01-1.062-.162 1.3 1.3 0 01-.7-.709.75.75 0 10-1.407.518A2.779 2.779 0 0028.247 24a3.576 3.576 0 001.5.316 4.065 4.065 0 00.725-.066l.377 1.026a.75.75 0 101.408-.517l-.38-1.033a3.233 3.233 0 001.643-3.784 2.782 2.782 0 00-1.48-1.552 3.73 3.73 0 00-2.222-.248l-1.051-2.859a2.147 2.147 0 011.061.163 1.289 1.289 0 01.7.708.75.75 0 101.408-.518 2.782 2.782 0 00-1.477-1.553 3.753 3.753 0 00-2.226-.249zm-.945 4.5a1.289 1.289 0 01-.7-.708 1.678 1.678 0 01.772-1.826l.99 2.69a2.162 2.162 0 01-1.062-.159zm4.125 1.422a1.289 1.289 0 01.7.708 1.674 1.674 0 01-.768 1.818l-.989-2.689a2.148 2.148 0 011.057.16z" fill="#64666A"></path></svg>