<svg xmlns:xlink="http://www.w3.org/1999/xlink" xmlns="http://www.w3.org/2000/svg" viewBox="0 0 56 56" aria-hidden="true" class="" fill="currentcolor" focusable="false" width="35" height="35"><path d="M52.039 26.328v-.011a.748.748 0 00-.2-.455.725.725 0 00-.583-.241l-14.025.769v-.79a.749.749 0 00-.749-.751.752.752 0 00-.75.75v.871l-7.623.418h-.218l-8.691-.775v-.526a.75.75 0 00-.75-.751.75.75 0 00-.75.75v.393L5.461 24.891v-7.992A1.955 1.955 0 017.4 14.927l41.214.026a1.956 1.956 0 011.93 1.972v2.848a.75.75 0 00.75.75.75.75 0 00.749-.751v-2.848a3.458 3.458 0 00-3.429-3.471l-14.032-.009v-3.8a1.5 1.5 0 00-1.493-1.5H22.331a1.5 1.5 0 00-1.493 1.5v3.789L7.4 13.427A3.456 3.456 0 003.966 16.9l-.017 27.454a3.456 3.456 0 003.429 3.476l41.462.026a3.144 3.144 0 002.253-.945 3.226 3.226 0 00.929-2.272l.027-18.248a.638.638 0 00-.01-.063zM22.331 9.644h10.75v3.8l-10.744-.007zm27.7 36.213a1.646 1.646 0 01-1.184.5L7.379 46.33a1.955 1.955 0 01-1.93-1.975L5.46 26.4l12.24 1.084v2.237a.749.749 0 00.749.75.749.749 0 00.75-.749v-2.105l8.6.764h.325l7.6-.415v1.762a.749.749 0 00.749.75.75.75 0 00.75-.749v-1.841l13.327-.73-.026 17.479a1.728 1.728 0 01-.498 1.22z" fill="#64666A"></path></svg>