<svg xmlns:xlink="http://www.w3.org/1999/xlink" xmlns="http://www.w3.org/2000/svg" viewBox="0 0 56 56" aria-hidden="true" class="" fill="currentcolor" focusable="false" width="35" height="35"><path d="M50.872 17.021l-22.54-8.25a2.223 2.223 0 00-1.392-.022L5.129 15.93a1.54 1.54 0 00-1.1 1.444 1.657 1.657 0 001.055 1.6l5.33 2.217.047 9.186A4.286 4.286 0 0012 33.523a.75.75 0 00.952-1.159 2.805 2.805 0 01-.988-2l-.044-8.553 3.771 1.569.163 13.487a3.247 3.247 0 00-2.865 3.011 2.836 2.836 0 001.138 2.222 3.85 3.85 0 001.764.758l.016 3.1a2.328 2.328 0 01-.823-.4 1.367 1.367 0 01-.57-1.05.729.729 0 00-.754-.746.751.751 0 00-.746.754 2.837 2.837 0 001.138 2.217 3.874 3.874 0 001.764.765v1.112a.751.751 0 00.75.747.749.749 0 00.746-.754V47.49a3.248 3.248 0 002.869-3.013 2.833 2.833 0 00-1.138-2.215 3.871 3.871 0 00-1.764-.771l-.015-2.966c0-.012.006-.021.006-.033V38.4a2.283 2.283 0 01.817.4 1.362 1.362 0 01.57 1.048.776.776 0 00.754.746.75.75 0 00.746-.754 2.83 2.83 0 00-1.137-2.215 3.878 3.878 0 00-1.765-.766v-1.053a.543.543 0 00-.013-.058L17.2 24.011l9.456 3.934.022.009a4.089 4.089 0 001.447.266 4 4 0 001.3-.216L43.537 22.8a829.49 829.49 0 00-.031 8.236c.013 2.284-6.633 4.976-15.219 5.022a39.7 39.7 0 01-5.792-.373.75.75 0 10-.208 1.485 41.7 41.7 0 005.764.389h.249c10.482-.056 16.728-3.365 16.711-6.53-.013-2.6.028-7.895.036-8.782l5.894-2.175a1.541 1.541 0 001.048-1.48 1.661 1.661 0 00-1.117-1.571zM15.06 40.922a1.365 1.365 0 01-.571-1.048 1.7 1.7 0 011.378-1.464l.015 2.914a2.32 2.32 0 01-.822-.402zm3.155 2.51a1.362 1.362 0 01.57 1.048 1.7 1.7 0 01-1.378 1.464l-.015-2.914a2.283 2.283 0 01.823.402zm32.218-24.777l-21.516 7.936a2.529 2.529 0 01-1.7-.035l-8.81-3.666 7.435-3.582a4.187 4.187 0 001.558.29h.026c1.7-.009 2.982-.891 2.975-2.051a1.838 1.838 0 00-1.039-1.553 3.91 3.91 0 00-1.958-.465c-1.7.009-2.982.89-2.976 2.05a1.541 1.541 0 00.174.661l-8.05 3.878-10.911-4.54c-.1-.039-.111-.122-.057-.219L27.4 10.178a.717.717 0 01.435.008l22.535 8.249c.103.036.114.12.063.22zm-24.223-.827c-.212-.121-.279-.235-.28-.257 0-.1.493-.537 1.484-.542h.018a2.5 2.5 0 011.192.27c.212.12.279.235.279.256 0 .1-.492.538-1.483.543a2.486 2.486 0 01-1.21-.27z" fill="#64666A"></path></svg>