<svg xmlns:xlink="http://www.w3.org/1999/xlink" xmlns="http://www.w3.org/2000/svg" viewBox="0 0 56 56" aria-hidden="true" class="" fill="currentcolor" focusable="false" width="35" height="35"><path d="M17.947 48.416a1.667 1.667 0 01-.419-.054 1.635 1.635 0 01-1.095-.928l-3.98-9.034-7.816-6.122a1.63 1.63 0 01.019-2.586l1.992-1.514A1.662 1.662 0 018.1 27.9l7.069 1.983a.75.75 0 11-.405 1.445l-7.072-1.981a.157.157 0 00-.136.026l-1.992 1.513a.13.13 0 000 .211l7.964 6.237a.761.761 0 01.224.288l4.056 9.207a.14.14 0 00.1.081.156.156 0 00.134-.026l1.994-1.516a.13.13 0 00.054-.107l-.1-8.028a.749.749 0 01.3-.606 237.773 237.773 0 002.825-2.186c1.288-1.006 2.8-2.187 5.471-4.217a1.667 1.667 0 011.475-.27 1.627 1.627 0 011.081 1.009l4.911 13.465a.14.14 0 00.095.087.151.151 0 00.138-.025l2.99-2.272a.131.131 0 00.054-.115L38 24a1.633 1.633 0 01.643-1.421c1.74-1.322 9.624-7.187 9.624-7.187a7.715 7.715 0 001.477-2.168c.786-1.589.966-2.908.483-3.529-1.057-1.358-5.293-.1-6.074.466-.146.106-9.737 7.182-9.737 7.182a1.64 1.64 0 01-1.481.212l-17.308-5.894a.16.16 0 00-.145.023l-2.99 2.272a.128.128 0 00-.054.109.126.126 0 00.06.107L25.14 22.82a.75.75 0 01.035 1.212l-4.646 3.6a.75.75 0 11-.919-1.186l3.833-2.967-11.792-8.068a1.631 1.631 0 01-.066-2.65l2.99-2.271a1.65 1.65 0 011.535-.249l17.307 5.893a.154.154 0 00.135-.019s9.567-7.059 9.717-7.168c1.133-.823 6.325-2.5 8.139-.175 1.175 1.51.3 3.853-.321 5.115a8.768 8.768 0 01-1.914 2.7s-7.891 5.871-9.624 7.187a.141.141 0 00-.055.118l1.325 18.1a1.627 1.627 0 01-.642 1.42l-2.99 2.272a1.654 1.654 0 01-2.551-.743l-4.911-13.464a.137.137 0 00-.094-.084.16.16 0 00-.144.025c-2.666 2.024-4.171 3.2-5.455 4.2-.853.667-1.609 1.258-2.541 1.969l.094 7.65a1.641 1.641 0 01-.647 1.321l-1.994 1.515a1.644 1.644 0 01-.997.343z" fill="#64666A"></path></svg>